<?xml version="1.0" encoding="UTF-8"?>
<svg id="Layer_1" data-name="Layer 1" xmlns="http://www.w3.org/2000/svg" viewBox="0 0 1080 1080">
  <defs>
    <style>
      .cls-1 {
        fill: #fff;
      }
    </style>
  </defs>
  <path class="cls-1" d="M667.28,210.63c16.99,0,30.77,13.78,30.77,30.77s-13.78,30.77-30.77,30.77-30.77-13.78-30.77-30.77,13.78-30.77,30.77-30.77ZM292.7,622.53l-7.61,2.82c-12.58,4.66-22.5,14.58-27.16,27.16l-2.81,7.61c-2.68,7.23-12.91,7.23-15.58,0l-2.82-7.61c-4.66-12.58-14.58-22.5-27.16-27.16l-7.61-2.81c-7.23-2.68-7.23-12.9,0-15.58l7.61-2.82c12.58-4.66,22.5-14.58,27.16-27.16l2.81-7.61c2.68-7.23,12.91-7.23,15.58,0l2.81,7.61c4.66,12.58,14.58,22.5,27.16,27.16l7.61,2.82c7.23,2.68,7.23,12.9,0,15.58ZM362.41,690.97c-14.05,0-25.43-11.39-25.43-25.43s11.39-25.43,25.43-25.43,25.43,11.39,25.43,25.43-11.39,25.43-25.43,25.43ZM367.51,558.55c0,8.68-7.04,15.72-15.72,15.72h-14.05c-8.68,0-15.72-7.04-15.72-15.72v-22.36c0-8.68-7.04-15.72-15.72-15.72h-117.94c-8.68,0-15.72,7.04-15.72,15.72v22.36c0,8.68-7.04,15.72-15.72,15.72h-14.05c-8.68,0-15.72-7.04-15.72-15.72v-98.51c0-65.2,50.59-120.9,115.75-123.26,68.28-2.47,124.61,52.36,124.61,120.1v101.67ZM379.5,259.28l-96.54,30.07c-4.86,1.51-9.91-1.71-10.63-6.76-4.02-28.36,12.98-56.26,41.21-65.06,28.23-8.79,58.07,4.52,70.87,30.15,2.27,4.55-.05,10.08-4.91,11.6ZM534.03,651.27c0,8.68-7.04,15.72-15.72,15.72h-80.57c-8.68,0-15.72-7.04-15.72-15.72v-152.34c0-8.68,7.04-15.72,15.72-15.72h14.05c8.68,0,15.72,7.04,15.72,15.72v106.85c0,8.68,7.04,15.72,15.72,15.72h35.08c8.68,0,15.72,7.04,15.72,15.72v14.05ZM525.05,377.63l-8.31,22.45c-4.34,11.72-20.92,11.72-25.26,0l-8.31-22.45c-8.74-23.63-27.37-42.26-51-51l-22.44-8.3c-11.72-4.34-11.72-20.92,0-25.26l22.45-8.31c23.63-8.74,42.26-27.37,51-51l8.31-22.44c4.34-11.72,20.92-11.72,25.26,0l8.31,22.44c8.74,23.63,27.37,42.26,51,51l22.45,8.3c11.72,4.34,11.72,20.92,0,25.26l-22.45,8.3c-23.63,8.74-42.26,27.37-51,51ZM556.39,487.93c0-49.67,35.77-91.15,82.9-100.03,9.78-1.84,18.89,5.47,18.89,15.43v14.35c0,7.46-5.3,13.71-12.57,15.37-25.01,5.73-43.72,28.16-43.72,54.88s18.71,49.15,43.72,54.88c7.28,1.67,12.57,7.91,12.57,15.37v14.35c0,9.95-9.11,17.27-18.89,15.43-47.13-8.88-82.9-50.36-82.9-100.03ZM698.99,677.68c-12.28,24.81-41.07,37.77-68.38,29.36-27.31-8.41-43.83-35.31-40.04-62.73.67-4.87,5.54-8.01,10.25-6.56l93.39,28.74c4.7,1.45,6.97,6.78,4.78,11.19ZM854.68,607.05l-10.35,3.83c-17.11,6.33-30.6,19.82-36.93,36.93l-3.83,10.35c-3.64,9.83-17.55,9.83-21.19,0l-3.83-10.35c-6.33-17.11-19.82-30.6-36.93-36.93l-10.35-3.83c-9.83-3.64-9.83-17.55,0-21.19l10.35-3.83c17.11-6.33,30.6-19.82,36.93-36.93l3.83-10.35c3.64-9.83,17.55-9.83,21.19,0l3.83,10.35c6.33,17.11,19.82,30.6,36.93,36.93l10.35,3.83c9.84,3.64,9.84,17.55,0,21.19ZM928.24,614.89c-10.18,0-18.43-8.25-18.43-18.43s8.25-18.43,18.43-18.43,18.43,8.25,18.43,18.43-8.25,18.43-18.43,18.43ZM429.8,430.77c-10.18,0-18.43-8.25-18.43-18.43s8.25-18.43,18.43-18.43,18.43,8.25,18.43,18.43-8.25,18.43-18.43,18.43ZM952.85,496.73c0,8.68-7.04,15.72-15.72,15.72h-14.05c-8.68,0-15.72-7.04-15.72-15.72v-22.36c0-8.68-7.04-15.72-15.72-15.72h-117.95c-8.68,0-15.72,7.04-15.72,15.72v22.36c0,8.68-7.04,15.72-15.72,15.72h-14.05c-8.68,0-15.72-7.04-15.72-15.72v-98.5c0-65.2,50.6-120.91,115.75-123.26,68.28-2.47,124.62,52.36,124.62,120.1v101.67ZM829.11,320.46c-40.25,1.88-71.13,36.7-71.13,76.99,0,8.68,7.04,15.72,15.72,15.72h117.95c8.68,0,15.72-7.04,15.72-15.72v-2.38c0-42.37-35.46-76.61-78.26-74.61ZM243.77,382.27c-40.24,1.88-71.13,36.69-71.13,76.98h0c0,8.69,7.04,15.73,15.72,15.73h117.94c8.68,0,15.72-7.04,15.72-15.72v-2.38c0-42.37-35.46-76.61-78.25-74.61Z"/>
  <g>
    <path class="cls-1" d="M212.63,851.47c.02-.13.05-.21.1-.25.55-3.29.82-4.93,1.37-8.22.45-2.2.9-4.99,1.73-7.71,1.34-4.42,2.65-7.66,2.86-9.18.09-.62.89-3.85,2.39-9.69.45-2.63.67-3.94,1.12-6.56.39-1.44.58-2.16.97-3.6.5-2.31,1.91-3.3,4.23-2.98.13.02.26.04.41.06,4.71.91,7.07,1.36,11.79,2.25,2.96.29,4.43.43,7.39.71,1.46.45,2.19.67,3.65,1.12,1.12,1.03,1.59,2.22,1.42,3.57-.02.13-.04.25-.08.38-.16.76-.38,2.24-.67,4.46-.28,2.22-.63,5.18-1.03,8.87-.71,4.93-1.06,7.4-1.77,12.33-1.43,7.18-2.14,10.77-3.58,17.94-.03.25-.11.51-.23.77-.29.5-.68.81-1.17.9-.82.16-2.61.07-5.32-.24-.99-.9-1.43-1.75-1.32-2.55.01-.1.04-.21.07-.31.41-1.4.86-3.83,1.36-7.3.2-1.53.3-2.29.5-3.82-.06-.78-.08-1.17-.14-1.94-2.43-.99-4.35-1.58-5.77-1.77-.07,0-.12-.02-.16-.02-.58-.07-1.02-.05-1.3.09-.74.28-1.82.33-3.22.14-.45-.06-1-.11-1.49-.23-.22-.06-.46-.13-.67-.16-1.05-.15-1.67.38-1.85,1.64-.21,1.52-.63,4.09-1.27,7.74-.48,1.52-.72,2.27-1.2,3.79-.26,1.29-.39,1.93-.65,3.22-1.42.25-2.46.33-3.13.24-.13-.02-.25-.05-.36-.08-.34-.11-.89-.22-1.63-.33s-1.71-.21-2.88-.31c-.38-1.56-.55-2.54-.49-2.96ZM227.67,827.55c.02.43.03.65.05,1.08,2.12.16,3.51.28,4.17.37,3.55.48,5.32.72,8.87,1.18.08-1.59.11-2.38.19-3.97.35-2.64.52-3.97.87-6.61.36-1.12.54-1.68.89-2.81.13-.97.19-1.46.32-2.43-.61-.26-.91-.39-1.52-.65-1.67-.14-2.5-.21-4.16-.36-1.23-.17-1.85-.25-3.08-.41-1.24-.06-1.87-.1-3.11-.16-.37,1.45-.55,2.17-.92,3.61-.32,1.56-.48,2.33-.79,3.89-.23,1.14-.35,1.71-.59,2.85-.21.99-.32,1.48-.53,2.46-.27.78-.4,1.17-.66,1.96Z"/>
    <path class="cls-1" d="M262.43,854.19c.28-2.32.42-3.48.7-5.81.09-.79.66-2.82,1.7-6.11.18-1.48.27-2.22.44-3.7.4-1.89.6-2.84.99-4.74.21-1.75.31-2.62.52-4.37.35-1.29.52-1.94.87-3.23.46-1.21.68-1.82,1.14-3.04.59-3.3.88-4.94,1.47-8.24.26-.88.39-1.31.65-2.19.68-.84,1.02-1.26,1.7-2.09,1.54-.17,2.31-.25,3.85-.42,2.02-.24,3.65-.29,4.88-.15.06,0,.12.01.16.02.43.05.78.13,1.04.25,1.38.42,2.76.82,4.05,1.24,1.9.61,3.33,1.29,4.24,1.93,3.14,2.2,4.99,4.01,5.55,5.45.82,2.24,1.15,4.18.98,5.79-.19,1.75-.83,3.42-1.94,5.03-2.17,3.17-4.34,5.74-6.52,7.7-2.33,1.67-3.5,2.5-5.83,4.17-.7.23-1.09.69-1.16,1.39-.1.87.4,2.04,1.5,3.5,1.94,2.5,3.66,4.99,5.18,7.46.97,1.37,1.46,2.06,2.44,3.43.14.81.17,1.55.1,2.21-.12,1.09-.5,1.64-1.15,1.65-1.09.02-1.67.43-1.72,1.27-.2.4-.31.61-.51,1.01-.97-.03-1.45-.04-2.42-.07-1.41-1.24-2.11-1.86-3.51-3.11-3.62-4.78-5.41-7.17-8.99-11.96-.43,2.31-.64,3.46-1.07,5.76-.35,1.47-.53,2.21-.89,3.68-.36.97-.54,1.45-.91,2.42-.33.54-.49.82-.82,1.36-2.84-.76-4.26-1.14-7.09-1.91.15-2.24.22-3.35.37-5.59ZM274.69,838.23c2.39-1.51,3.59-2.27,5.97-3.78,1-.9,1.92-1.79,2.77-2.66,2.09-2.2,3.68-4.26,4.79-6.16.38-.67.63-1.31.7-1.9.23-1.79-1.41-3.44-4.82-4.84-.85-.35-2.77-.71-5.76-1.08-.29,1.63-.44,2.45-.74,4.09-.55,1.88-.82,2.82-1.37,4.7-.26,2.25-.39,3.37-.65,5.62-.36,2.4-.54,3.61-.89,6.01Z"/>
    <path class="cls-1" d="M316.59,815.37c2.55-.25,3.83-.37,6.38-.63,6.16.42,10.24.7,12.25.88.02,0,.04,0,.07,0,1.92.18,3.24,1.11,3.93,2.82-.75,2.73-1.12,4.09-1.87,6.82-2.01-.18-3.02-.27-5.03-.45-1.25-.11-2.04.32-2.4,1.3-.13,1.39-.19,2.08-.32,3.47-.25,1.89-.38,2.84-.63,4.73-.22,2.36-.33,3.54-.55,5.9-.6,3.08-.9,4.62-1.5,7.69-.7,3.15-1.05,4.72-1.76,7.87-1.13,4.61-1.69,6.91-2.83,11.52-3.92-1.04-6.27-1.6-7.05-1.67-.57-.06-.74-1.44-.49-4.12.08-.89.22-1.95.41-3.16.39-1.78.58-2.67.96-4.46,1.12-6.36,1.74-10.15,1.86-11.37.83-7.44,1.24-11.16,2.06-18.6-3.59-.35-5.38-.52-8.96-.89.19-1.08.28-1.63.47-2.71,0-1.9,0-2.85,0-4.75,2.01-.08,3.01-.12,5.02-.21Z"/>
    <path class="cls-1" d="M350.75,862.06c1.3-.05,1.95-.07,3.24-.12,1.89-.16,2.83-.24,4.72-.4.98.08,2.91-.69,5.78-2.32,1.3-.72,2.01-1.73,2.1-3.03.09-1.13-.34-2.4-1.13-3.76-.63-1.08-1.18-1.85-1.71-2.19-2.84-2.6-5.39-5.09-7.63-7.08-1.92-1.7-3.41-4.44-4.17-8.24-.06-.35-.07-.81-.02-1.39.23-2.68,1.12-5.46,2.63-8.33.83-1.65,2.04-2.98,3.63-3.99.97-.57,1.97-1.17,2.99-1.79.53-.45,1.42-.8,2.67-1.05.53-.09,1.12-.15,1.79-.18,1.64.44,2.46.65,4.1,1.09.76.61,1.14.92,1.91,1.53.58.84.86,1.26,1.44,2.1.71.84,1.06,1.26,1.77,2.09,1.2,2.65,1.95,4.35,2.25,5.12.12.18.17.38.15.59-.04.62-.43,1.26-1.15,1.92-.9.24-1.34.37-2.24.61-.56.28-.84.42-1.4.71-.02.21-.39-.21-1.12-1.28-.44-.66-.65-1-1.09-1.66-.83-1.35-1.81-2.55-2.92-3.6-.49-.42-1.07-.66-1.74-.71-1.68-.13-3.07.62-4.17,2.25-.46.61-.72,1.31-.78,2.1-.03.34.02.87.08,1.52.07.87.07,1.54.08,1.88.03.91.9,2.13,2.65,3.62,2.63,2.22,4.22,3.64,4.76,4.26,2.02,2.28,4.15,4.99,6.41,8.14.9,1.18,1.27,2.94,1.11,5.27,0,.06,0,.13-.01.19-.13,1.8-.55,3.67-1.26,5.61-1.29,1.32-1.94,1.99-3.23,3.31-1.11.64-1.66.96-2.77,1.6-2.84,1.27-4.96,2.23-6.36,2.87-.91.42-2.26.62-4.02.56-1.18-.04-2.38-.12-3.53-.15-3.21-.09-5.97-.14-8.12-.28.04-1.43.06-2.14.1-3.57-.09-1.75-.14-2.62-.23-4.37,1.76.23,2.65.34,4.41.56Z"/>
    <path class="cls-1" d="M392.44,825.09c.02-.39.21-.98.33-1.62.16-.86.34-1.45.78-1.46.81-.21,1.39-.36,1.75-.47.63-.2,1.05-.35,1.27-.47.39-.15.85-.2,1.38-.17.7.04,1.12.34,1.25.88.58,1.26,1.01,2.11,1.28,2.56,1.7,4.16,2.6,6.66,2.68,7.51.4,1.63.76,3.02,1.04,4.15.45,1.79.85,3.31,1.11,4.43.4,1.68.71,3.13,1.06,4.18.19.55.21.94.06,1.19.43-.77.64-1.16,1.06-1.93,2.04-3.4,3.37-5.63,4.02-6.69.39-.6,1.73-2.37,4.02-5.31,1.41-1.77,2.24-3.33,2.65-4.39.53-1.37,1.16-3.03,1.66-3.61.46-.54,1.91-.85,2.28-1.14.39-.3.82-.92,1.25-.9.18,0,1.76,1.08,4.77,3.2.41.04.62.36.57.93-.03.44-.24,1.04-.58,1.77-1.06,2.39-1.65,3.98-1.78,4.77-.85,2.08-1.62,3.75-2.32,4.97-1.01,1.74-2.17,3.07-2.76,3.88-.55.75-.87,1.68-1.07,2.21-.2.54-.43,1.05-.67,1.53-.37.73-.69,1.19-.96,1.39-1.06.69-1.95,1.68-2.66,2.97-.71,1.29-1.45,2.2-2.19,2.74-.05,0-.24.36-.6,1.09-.36.73-.67,1.2-.95,1.39-.13.47-.2.7-.33,1.17-.76.6-1.6,1.67-2.55,3.21-1.38,2.8-2.25,4.8-2.58,6-1.16,1.75-1.73,2.62-2.89,4.37-1.72,3.2-2.58,4.79-4.31,7.99-.07,0-.15,0-.23-.01-4.03-.23-6.43-1.59-7.13-4.02,1.78-4.37,4.46-9.79,8.03-16.25.28-.46.42-.69.7-1.15-.31-.36-.56-.74-.75-1.14-1.45-3.57-2.18-5.42-2.21-5.54-.54-2.74-1.24-5.37-1.62-7.56-.45-2.6-.9-5.59-1.77-8.38-.28-1.14-.73-2.36-1.36-3.66-.38-.88-.54-1.5-.47-1.83.05-.23.09-.45.11-.67.04-.55-.07-1.08-.32-1.57-.06-.11-.08-.29-.06-.55Z"/>
    <path class="cls-1" d="M472.31,869.87c.07-2.34.1-3.51.17-5.85.02-.79.38-2.87,1.07-6.24.04-1.49.06-2.24.11-3.73.21-1.92.32-2.88.53-4.81.05-1.76.08-2.64.13-4.4.18-1.32.27-1.98.44-3.3.35-1.25.53-1.88.88-3.13.25-3.34.38-5.01.63-8.34.21-.9.31-1.34.52-2.24.62-.9.93-1.34,1.54-2.24,1.53-.31,2.3-.46,3.83-.77,1.97-.42,3.59-.62,4.87-.59.06,0,.12,0,.16,0,.43.01.8.06,1.13.15,1.35.29,2.73.56,4.08.86,1.99.44,3.5.98,4.45,1.54,3.32,1.91,5.32,3.54,5.99,4.93,1.02,2.16,1.52,4.05,1.5,5.68-.03,1.76-.52,3.49-1.48,5.18-1.88,3.36-3.84,6.11-5.88,8.26-2.15,1.87-3.23,2.81-5.39,4.68-2.51,2.13-5.65,3.98-9.43,5.54-.28,3.2-.42,4.79-.7,7.99-.2,1.5-.3,2.25-.5,3.75-.29,1-.44,1.5-.74,2.49-.27.57-.4.86-.67,1.43-2.88-.5-4.33-.75-7.21-1.26-.01-2.24-.02-3.36-.04-5.6ZM482.97,852.86c2.24-1.72,3.35-2.58,5.58-4.31.96-.98,1.82-1.95,2.6-2.9,1.87-2.38,3.27-4.57,4.2-6.57.32-.7.48-1.35.49-1.95.04-1.84-1.71-3.3-5.22-4.39-.92-.28-2.88-.46-5.88-.55-.12,1.66-.18,2.48-.29,4.14-.4,1.92-.59,2.88-.99,4.8-.06,2.26-.08,3.39-.14,5.65-.14,2.43-.21,3.64-.35,6.07Z"/>
    <path class="cls-1" d="M516.65,872.51c0-.75.1-1.4.28-1.96.46-1.58.74-4.9.8-9.94.01-1.05.72-4.69,2.13-10.92.61-4.35.91-6.53,1.51-10.89.47-3.97.71-5.95,1.17-9.92.48-1.63.71-2.44,1.19-4.07,1.66.27,2.49.4,4.15.67,1.26.3,1.88.45,3.14.76.27,3.83.41,5.75.69,9.58-.62,4.38-.94,6.57-1.56,10.94,3.74.43,5.6.64,9.34,1.05.69-2.45,1.04-3.67,1.72-6.12.13-3.6.19-5.39.32-8.99.43-2.02.64-3.04,1.06-5.06.67-.88,1.5-1.33,2.51-1.33.62,0,1.26.19,1.91.57,1.85,1.13,3.37,3.14,3.48,5.13.2,3.73-1.08,9.49-2.01,15.4-.43,1.5-1.2,6.18-2.34,14.02-.29,3.95-.44,5.92-.73,9.87-.69,2.06-1.04,3.09-1.74,5.14-.18,0-.35,0-.53,0-4.13,0-6.41-1.01-6.82-3.02-.13-.66-.22-1.45-.22-2.31-.02-2.03.3-4.49.9-7.29,0-3.26,0-4.9,0-8.16-3.23-.16-4.85-.24-8.08-.41-.75,5.22-1.13,7.82-1.9,13.04-.24,1.26-.63,4.32-1.19,9.18-3.45-.28-5.18-.42-8.63-.71-.38-1.55-.56-2.96-.55-4.25Z"/>
    <path class="cls-1" d="M564.55,859.28c.04-.13.29-2.54.74-7.24.06-2.01.08-3.01.14-5.02.15-2.51.23-3.76.38-6.27.3-2.16.45-3.24.75-5.41.28-3.6.42-5.41.7-9.01.7-1.12,1.74-1.69,3.14-1.71.15,0,.3,0,.45.03.82.05,2.38.06,4.67.03,2.3-.04,5.31-.12,9.03-.26,2.81-.06,4.22-.08,7.04-.15,1.61.12,2.42.18,4.03.29,1.02.68,1.55,1.46,1.57,2.34,0,.21-.01.43-.05.64-.36,1.15-.63,4.19-.81,9.12-.17,2.87-.26,4.31-.44,7.18.05,2.11.08,3.16.13,5.27.12,1.68.18,2.52.3,4.21-.1,2.09-.16,3.13-.26,5.21.12,4.81.17,7.21.29,12.02-.21.91-.32,1.36-.54,2.26-.47.72-.71,1.08-1.18,1.8-1.14.22-1.72.33-2.86.55-1.06.41-1.59.61-2.66,1.02-2.03.36-3.05.54-5.08.9-1.82-.12-2.73-.18-4.55-.3-1.5-.05-2.25-.08-3.75-.13-1.9-.21-2.85-.32-4.75-.54-1.5-.06-2.25-.09-3.75-.15-1.13-.86-1.7-1.74-1.71-2.62,0-.88.04-2.68.14-5.4-.09-1.21-.14-1.81-.23-3.02-.25-1.53-.38-2.29-.63-3.82-.1-.73-.15-1.1-.25-1.83ZM573.7,851.32c.1,1.21.14,1.81.24,3.02.26.63.39.94.65,1.57.09.67.13,1,.22,1.67-.07.48-.11.71-.18,1.19-.14,1.84-.22,2.76-.36,4.6.02,1.53.03,2.3.06,3.83.04-.02.12-.04.23-.04.49,0,1.59.12,3.33.37,3.48-.06,5.22-.09,8.7-.16-.04-1.93-.06-2.89-.1-4.82.11-1.14.15-2.21.13-3.22-.02-.97-.1-1.55-.23-1.76-.25-.65-.37-.98-.63-1.63.28-.73.43-1.09.71-1.82.21-1.14.32-1.71.53-2.84.04-1.44.06-2.16.1-3.6.15-4.22.21-6.97.18-8.23-.02-1.22-.31-3.08-.85-5.58-2.44-.04-3.66-.06-6.09-.11-1.66.2-2.49.29-4.16.49-.15.55-.23.83-.38,1.38-.13,1.14-.19,1.71-.32,2.84-.23,1.99-.34,2.99-.57,4.98-.2,1.78-.29,2.67-.49,4.45-.29,1.37-.44,2.05-.73,3.42Z"/>
    <path class="cls-1" d="M616.76,825.07c2.5-.58,3.74-.87,6.24-1.46,6.15-.4,10.23-.65,12.25-.74.02,0,.04,0,.07,0,1.91-.1,3.35.68,4.26,2.28-.38,2.8-.57,4.2-.96,7.01-2.02.09-3.03.13-5.05.21-1.25.05-1.98.59-2.2,1.6.06,1.39.08,2.09.14,3.48,0,1.91,0,2.86,0,4.77.1,2.37.14,3.56.24,5.93-.19,3.13-.28,4.69-.47,7.82-.28,3.21-.42,4.82-.71,8.04-.51,4.72-.77,7.08-1.28,11.79-4.02-.51-6.42-.76-7.2-.73-.57.02-.93-1.33-1.03-4.02-.03-.89-.03-1.96-.01-3.18.15-1.82.22-2.73.37-4.55.27-6.46.39-10.29.34-11.52-.16-7.48-.24-11.23-.41-18.71-3.6.13-5.39.19-8.99.3.04-1.1.06-1.65.11-2.75-.25-1.88-.38-2.82-.63-4.71,1.98-.34,2.97-.52,4.94-.86Z"/>
    <path class="cls-1" d="M654.82,856.56c.04-.13.19-2.55.45-7.26-.02-2.01-.03-3.01-.06-5.02.06-2.51.08-3.77.14-6.28.22-2.17.32-3.26.54-5.43.14-3.61.21-5.42.35-9.03.65-1.15,1.67-1.76,3.07-1.83.15,0,.3,0,.45,0,.82.02,2.38-.03,4.67-.15,2.29-.13,5.3-.33,9.02-.61,2.81-.17,4.22-.25,7.03-.42,1.61.06,2.42.08,4.04.13,1.05.64,1.6,1.4,1.66,2.28.01.21,0,.43-.02.65-.31,1.16-.47,4.21-.45,9.15-.06,2.88-.1,4.31-.16,7.19.13,2.1.2,3.16.33,5.26.18,1.68.28,2.51.46,4.19-.02,2.09-.03,3.13-.06,5.22.3,4.8.46,7.2.76,12-.18.91-.27,1.37-.45,2.28-.44.74-.66,1.1-1.1,1.84-1.14.26-1.7.4-2.84.66-1.05.45-1.57.68-2.62,1.13-2.02.44-3.02.66-5.04,1.1-1.82-.05-2.74-.07-4.56-.13-1.5,0-2.25,0-3.75.02-1.91-.14-2.86-.21-4.77-.36-1.5,0-2.25,0-3.76,0-1.16-.82-1.77-1.67-1.81-2.55-.04-.88-.07-2.68-.07-5.4-.14-1.2-.21-1.81-.35-3.01-.31-1.52-.47-2.27-.78-3.79-.13-.73-.19-1.09-.32-1.82ZM663.65,848.24c.14,1.2.22,1.81.36,3.01.28.62.43.92.71,1.54.12.66.17,1,.29,1.66-.05.48-.08.72-.13,1.2-.07,1.85-.11,2.77-.18,4.61.08,1.53.12,2.29.21,3.82.04-.02.12-.04.23-.05.49-.03,1.6.06,3.34.24,3.47-.19,5.21-.29,8.69-.5-.11-1.92-.17-2.89-.29-4.81.06-1.14.07-2.22,0-3.22-.06-.96-.16-1.55-.3-1.75-.28-.64-.41-.96-.69-1.6.25-.74.38-1.11.64-1.84.17-1.14.25-1.72.42-2.86-.02-1.44-.02-2.16-.04-3.6-.02-4.23-.06-6.97-.14-8.24-.07-1.22-.43-3.06-1.07-5.54-2.44.06-3.66.08-6.1.13-1.65.26-2.48.39-4.13.65-.13.56-.19.83-.32,1.39-.09,1.14-.13,1.71-.21,2.85-.15,2-.22,3-.37,5-.13,1.78-.19,2.68-.32,4.46-.24,1.38-.36,2.07-.59,3.45Z"/>
    <path class="cls-1" d="M700.68,822.85c-.24-2.85,1.08-4.43,3.84-4.63.11,0,.23-.02.35-.03,3.91-.11,14.53-2.09,18.64.02,1.35.69,2.5,3.99,2.61,5.33.04.54-.06.96-.32,1.29-1.16,1.64-2.64,2.54-4.43,2.68-1.29.1-4.79-.01-10.48-.38.33,4.71.49,7.06.82,11.77,5.74-.12,8.61-.19,14.36-.35,1.26.57,1.94,1.46,2.04,2.69.18,2.14.26,3.21.44,5.36-3.25.85-5.61,1.33-7.08,1.44-1.47.12-4.35.43-8.66.93,0,1.08,0,1.62,0,2.7.35,7.06.52,10.58.86,17.64-.84.28-1.68.53-2.52.77-1.47.41-2.7.67-3.65.75-1.47.12-2.6-.15-3.33-.76-.55-7.43-.83-11.15-1.38-18.58-.13-4.26-.21-6.84-.25-7.74-.52-7.34-.78-11.02-1.3-18.36-.28-.86-.47-1.72-.54-2.54Z"/>
    <path class="cls-1" d="M742.2,859.58c.38-4.28.56-6.42.93-10.7.11-5.78.17-8.67.27-14.44.14-3.72.22-5.58.36-9.29.04-.31.71-.52,1.97-.63,1.49-.12,3.67-.11,6.5.01.43,3.24.65,4.86,1.08,8.1-.19,3.05-.57,5.53-1.14,7.43-.11.92-.11,2,0,3.26.12,1.26.35,2.68.69,4.26-.22,4.28-.33,6.42-.56,10.7-.05,3.81-.07,5.72-.13,9.53-3.71-.06-5.57-.09-9.28-.17-.28-3.23-.42-4.84-.71-8.07ZM743.4,820.04c.02.21,1.08.73,3.18,1.55,2.26-.42,3.97-1,5.08-1.6.9-.48,1.33-1.41,1.2-2.82-.21-2.22-1.1-3.25-2.69-3.11-.65.06-2.33.81-5.05,2.24-1.18.6-1.75,1.47-1.72,2.61.01.43.02.64.03,1.06-.02.02-.03.05-.03.07Z"/>
    <path class="cls-1" d="M775.64,861.44c-.18-.66-.37-1.98-.56-3.92-.2-1.94-.4-4.53-.63-7.75-.36-4.32-.54-6.48-.9-10.8-.07-.71-.15-3.97-.25-9.8-.12-1.99-.19-2.99-.31-4.98.1-2.66.15-3.99.25-6.65.2-1.05.29-1.58.49-2.64,2.51-1.14,4.47-1.79,5.89-1.94.59-.06,1.04,0,1.35.18,1.4.86,2.19,2.01,2.35,3.4.03.3.29,3.56.77,9.78.48,6.22.74,9.5.78,9.84.08.71.45,6.05,1.13,16.04,2.22-.5,3.32-.74,5.54-1.25,1.78-.29,2.67-.43,4.45-.72.41.09.79.22,1.14.42.83.53,1.38,1.41,1.65,2.6.41,1.8,1.55,5.14,1.11,6.31-.07.19-1.06.78-2.34,1.59-.76.52-1.55,1.13-2.31,1.65-.81.54-1.57.82-2.1.88-.06,0-.13.01-.2.02-2.24-.06-4.06-.01-5.47.14-.55.06-1.03.13-1.45.22-2.09.22-3.13.33-5.21.55-.65.07-1.56-.17-2.71-.72-1.35-.65-2.18-1.49-2.44-2.46Z"/>
    <path class="cls-1" d="M812.75,854.19c-.08-.7.02-1.41.25-2.1.33-.99.89-3.49,1.63-7.41.68-3.61,1.17-5.79,1.52-6.5.56-1.26,1.35-5.15,2.36-11.69.86-3.23,1.29-4.84,2.14-8.06.5-3.27.75-4.91,1.24-8.18.43-1.99,1.53-3.1,3.31-3.33,1.14-.14,2.46.11,3.99.75,3.2,1.32,5.23,5.24,6.08,11.76.17,1.29,1.95,8.94,5.38,22.93,3.15-11.68,4.69-17.52,7.73-29.21.33-3.52.88-5.34,1.65-5.45.12,0,.18.01.3.02.92.31,3.08,1,5.69,1.13,3.14.15,5.46,1.11,5.86,3.91.02.11.03.21.05.32.29,3.29,1.16,9.98,2.6,20.08.63,6.56.94,9.84,1.56,16.4-.07.77-.24,1.46-.5,2.09-.71,1.46-1.82,2.46-3.35,3-.42.14-.87.25-1.33.31-1.3.18-2.37-.05-3.22-.69-.73-.55-1.13-1.12-1.21-1.72-.01-.1-.02-.21-.01-.32,0-.89-.79-8.9-2.38-24.03-2,7.04-3,10.56-5.04,17.6-1,2.63-1.5,3.95-2.51,6.58-1.47,1.29-2.2,1.93-3.67,3.22-1.43.08-2.14.13-3.57.21-.77-.57-1.43-1.08-1.98-1.53-1.38-1.14-2.17-2-2.34-2.55-.25-.84-2.79-8.98-7.54-24.37-1.42,9.26-2.13,13.88-3.6,23.14-.1,1.2-.27,2.22-.49,3.09-.35,2.19-.79,3.48-1.3,3.87-1.91,1.26-3.28,1.94-4.11,2.04-.7.08-1.3-.04-1.79-.37-2.03-1.36-3.15-2.99-3.37-4.91Z"/>
  </g>
</svg>