<svg width="363" height="218" viewBox="0 0 363 218" fill="none" xmlns="http://www.w3.org/2000/svg">
<path fill-rule="evenodd" clip-rule="evenodd" d="M2.70001 87.5C4.10001 86.2 4.60001 85 4.20001 83.5C3.60001 81.5 4.60002 79.7 4.90002 77.8C5.00002 77.4 5.49999 77 5.79999 76.6C6.19999 76.1 6.90006 75.7 7.00006 75.2C7.30006 73.7 8.29996 73.1 9.39996 72.4C9.69996 72.2 10 71.9 10.2 71.6C11.5 70.3 11.6001 69 10.5001 67.5C9.50006 66.1 8.49999 64.6 7.29999 63C9.89999 61.8 12.5 61.6 14.9 61.4C19.1 60.9 22.1 58.3 25.8 56.1C24.7 55.7 24.1 55.5 23.4 55.3C27 54.5 27.4 53.6 25.9 50.4C24.7 48.1 25.1 47.3 27.8 46.3C28.2 46.2 28.5001 45.9 29.0001 45.7C29.0001 44.2 29.1 42.7 29.1 41.2C29.1 40.2 29.4001 39.5 30.5001 39.1C29.7001 38.3 29 37.9 28.7 37.3C28.5 36.8 28.7 36.1 28.8 35.5C29.1 34.3 27.8 34.2 27.4 33.4C27.5333 32.5333 27.6667 31.6333 27.8 30.7C28.2 30.4333 28.6001 30.1333 29.0001 29.8C31.5001 27.6 31.6 27.2 29.8 23.7C30.2 23.2 30.8 22.7 31.1 22.1C31.4 21.5 31.5 20.7 31.7 19.6C32.3 19.3333 33.1667 18.9333 34.3 18.4C34.6 17.3 34.8 16.1 35.1 14.9C35.2 14.1 35.3001 13.4 35.5001 12.7C36.8001 9 36.8 9 39.9 6.9C39.1 5.6 37.7 7.5 36.7 6.2C36.9 6 37.1 5.6 37.3 5.6C38.6 5.4 39.9 5 41.1 5.1C47.8 5.2 54.4 4.5 61.1 3.8C69.2 2.8 77.4 2.2 85.6 1.6C91.5334 1.2 97.4333 0.866669 103.3 0.600002C109.1 0.400002 114.9 0.300001 120.6 0.200001C122.8 0.100001 125 0 127.2 0C132.8 0 138.5 7.59959e-07 144.1 0.200001C151.9 0.500001 159.8 1.1 167.6 1.4C171.8 1.7 176 1.7 180.3 1.8C188.8 2 197.2 2.1 205.7 2.4C212.5 2.53333 219.3 2.73333 226.1 3C233.3 3.3 240.5 3.7 247.7 4C261.2 4.4 274.6 5.8 287.9 7.9C296.7 9.3 305.4 10.4 314.2 11.7C316.5 12.1 318.8 12.6 321.1 12.9C325.9 13.5 330.7 14.2 335.6 14.7C337.1 14.9 338.5 15.2 339.9 15.8C342.1 16.7 344.7 16.8 347.1 17.2C349.1 17.5 351.1 17.7 353 17.9C354 19.2 353.5 20.3 353.3 21.4C353 22.7 353.1 23.9 354 25.1C354.6 25.9 355.2 27.1 355.2 28.2C355.3 30 354 31.5 353.1 33.1C352.7 33.9 351.6 34 350.7 33.9C349.033 33.7 347.367 33.5333 345.7 33.4C345.1 33.4 344.4 33.4 343.8 33.6C343.5 33.7 343.2 34.1 343.1 34.4C343 34.7 343.1 35.2 343.3 35.4C344.5 36.5 345.8 37.2 347.4 37.3C349.3 37.5 351.2 37.8 353.1 38C353.2 39.5 353 40.8 353.3 41.9C353.8 43.4 352.5 44.2 353 45.8C350.4 45.5 348.2 45.2 346.1 44.9C344 44.7 342 44.4 340 44.2C337.8 44 335.6 43.9 333.4 43.9C331.4 43.9 329.4 43.6 327.1 44.2C328.1 45.2 328.9 45.2 329.8 45.3C332.867 45.4333 335.933 45.5667 339 45.7C339.4 45.8 339.8 45.7 340.1 45.9C343.5 47.4 347.2 47.3 350.6 48.1C352.1 48.4 353.6 49 355 49.6C355.4 49.8 355.7 50.5 356.1 51.2C355.1 51.6 354.3 51.9 353.6 52.2C353.2 53.3 353.7 53.8 354.4 54.3C355.3 54.9 356.3 55.4 357.4 56.1C356.8 56.6 356.5 57.1 356.1 57.3C354.6 57.9 354.1 59.3 353.7 60.6C353.3 61.5 353.7 62.6 352.7 63.4C352.4 63.5 352.6 64.3 352.7 64.8C352.9 65.8 353.2 66.8 353.6 67.9C352.7 67.9 352 67.8 351.2 67.8C348.7 67.6 346.1 67.4 343.5 67.3C342.4 67.2 342 67.9 341.9 69.2C345.9 70.9 350.4 70.5 354.5 72.1C354.5 73.1 354.5 74 354.5 75C355.3 75.3 356 75.5 356.7 75.9C357.2 76.1 357.8 76.5 358.3 76.8C358.2 77.2 358.2 77.5 358 77.7C356.2 79.7 356.5 81.8 358.1 83.5C359.6 85.1 359.4 86.4 358.3 88.1C360.2 89.7 361.3 91.7 362 93.9C362.4 95 362.3 96.4 362.4 97.8C361.2 98.1 360.2 98.6 359.2 98.5C356.5 98.4 353.9 98 351.2 97.8C348.3 97.6 345.3 97.5 342.4 97.4C341.9 97.4 341.4 97.6 340.8 97.8C340.8 99.1 340.8 100.3 340.8 101.6C340.333 101.933 339.867 102.267 339.4 102.6C339.6 102.9 339.8 103.2 340 103.2C340.6 103.4 341.2 103.5 341.8 103.7C343 104 343.7 104.9 344.2 106.3C342.3 106.7 340.6 107 338.6 107.4C340.5 108.9 342.6 109.6 343.8 111.4C345.067 113.133 346.367 114.867 347.7 116.6C346.6 117.7 346.2 119 346.9 120.3C347.4 121 347.4 121.6 347.2 122.4C347.1 123.3 347.3 124.2 347.5 125.1C347.6 125.7 347.9 126.3 348.1 126.9C348.5 128.6 348 129.3 346.2 129.3C344.1 129.1 342.2 129.4 340.4 130.6C338.2 132.1 337 134.1 336.2 136.5C336 137.1 335.9 138.1 336.3 138.7C338 141.5 338 144.8 338.6 147.8C335.3 151.7 335.3 151.7 336.1 155.5C335.6 156 335 156.7 334.5 157.4C332.7 160 333 162.2 335.5 164.1C336.2 164.6 337 165 338 165.6C338.4 166.6 338.9 167.9 339.5 169.4C337.9 171.4 337.9 173.7 338.5 176.3C339.6 177.4 341.2 178.2 341.9 180.1C342.4 181.7 342.6 182.9 342 184.4C341.3 186.2 341.8 187.4 343.4 188.1C344 188.4 344.6 188.4 345.3 188.6C346.8 189.1 347.2 190.2 346.8 191.9C344.2 191.9 341.567 191.933 338.9 192C337.9 192.067 336.867 192.133 335.8 192.2C335.3 192.2 334.8 192.4 334.3 192.2C332 191.3 329.5 191.7 327.1 191.4C323.1 191 319.2 190.5 315.2 190.2C313.5 190 311.6 189.4 310.2 191.2C308.7 191.3 307.2 191.6 305.6 191.5C300.7 191.3 295.7 191 290.7 190.8C288.367 190.733 286.033 190.7 283.7 190.7C283.3 190.6 282.8 190.9 282.2 191C283.7 195.5 284.8 199.9 283.1 204.4C283.2 204.6 283.2 204.9 283.3 205.1C284.1 205.9 284.8 206.6 284.3 207.8C283.9 209 283.2 209.8 281.9 210C279.4 210.4 276.8 210.8 274.3 211C269.7 211.3 265 211.5 260.4 211.9C252.8 212.5 245.1 213.2 237.4 213.9C230.4 214.5 223.4 215.3 216.3 215.9C212 216.2 207.6 216.2 203.2 216.4C200.8 216.4 198.4 216.6 195.9 216.6C193 216.7 190 216.7 187.1 216.8C183.5 216.933 179.9 217.1 176.3 217.3C160.9 218 145.5 217.9 130.1 217.4C124.3 217.2 118.5 216.6 112.8 216.4C107.5 216.1 102.2 216.1 97.0001 216C91.7001 215.8 86.5 216.1 81.2 216C78.1 216 75.1001 216 72.0001 216C69.2001 216.1 66.3 216.1 63.6 216.7C63.1 216.8 62.6 216.7 62.1 216.7C61.3 215.3 60.9 214.1 61.1 212.6C61.4 210.9 60.7 210.4 58.9 210.5C58.1 210.5 57.3 210.7 56.6 210.7C55.9 210.7 55.3 210.4 54.7 210.2C54.6 209.8 54.5 209.4 54.6 209.1C55.1 207.8 54.7 206.8 53.6 206.1C52.8 205.7 52.1 205.2 51.1 204.7C52 203.3 53.2 202.3 53.1 200.6C53 198.3 53.1 196 52.2 193.8C51.6 192.2 50.5 191.2 48.9 190.9C47.5 190.7 46.1 190.5 44.4 190.3C44.1 189.3 44.0001 188.1 43.5001 187.1C43.2001 186.2 42.5 185.5 41.9 184.7C42.1 184.5 42.2 184.1 42.4 184.1C44.9 184.2 45.5001 181.8 47.0001 180.6C47.5001 180.2 47.5 178.9 47.3 178.1C46.8 175.8 45.4 174.2 42.9 173.4C42.9 172 43.1 170.6 42.9 169.3C42.7 168 41.9 166.9 41.6 166.1C41.7 164.1 41.8 162.5 41.9 160.8C42 159.6 42.2 158.3 42.2 157C42.3 155.8 42.8 154.9 43.6 153.9C44.4 153.1 44.9001 152 45.5001 151C46.0001 150.1 46.5 149.3 47.6 149C49 148.6 49.3 147.4 49.1 146.2C49 145.1 48.9 144 48.7 142.6C46.2 141.7 43.5 140.9 40.6 141.1C38.1 141.2 35.5001 141.6 33.0001 141.8C31.2001 141.9 29.5 142.5 27.9 140.8C27.4 140.3 26.0001 140.3 25.0001 140.5C22.5001 140.8 20.8 139.1 18.6 138.5C17.4 138.2 17.1 136.6 17.1 135.5C17.2 133 16.2 131.1 14.6 129.3C13.7 128.2 13.4 127 13.6 125.7C14 123.3 13.1 121.1 12.6 118.9C12.5 118.1 12 117.5 11.6 116.8C10.7 115.6 9.70001 115.5 8.20001 116.2C7.80001 116.5 7.39996 117 6.89996 117C6.39996 117 5.69999 116.7 5.29999 116.3C5.09999 116.1 5.30004 115.3 5.60004 115C5.90004 114.5 6.60006 114.2 7.00006 113.7C7.40006 113.4 7.70004 113 8.10004 112.4C7.63337 111.4 7.13337 110.4 6.60004 109.4C7.70004 108.4 8.09996 107.3 7.89996 105.7C7.69996 104.1 7.70006 102.4 8.00006 100.8C8.50006 98 8.40001 95.4 6.70001 93C6.56668 92.8 6.46663 92.5667 6.39996 92.3C5.89996 90.4 4.80001 88.9 2.70001 87.5ZM3.29999 116.1C2.59999 116.8 2.1 117.5 1.5 117.8C0.9 118 0 117.2 0 116.4C0 115.6 0.599988 114.7 1.29999 114.8C1.89999 115 2.49999 115.5 3.29999 116.1ZM349.5 121.7C349.5 121.633 349.5 121.567 349.5 121.5C349.633 121.567 349.733 121.633 349.8 121.7C349.733 121.7 349.633 121.7 349.5 121.7Z" fill="white"/>
</svg>
