<?xml version="1.0" encoding="UTF-8"?>
<svg id="Layer_1" data-name="Layer 1" xmlns="http://www.w3.org/2000/svg" viewBox="0 0 1080 1080">
  <defs>
    <style>
      .cls-1 {
        fill: #fff;
      }

      .cls-2 {
        fill: #111;
      }
    </style>
  </defs>
  <rect class="cls-2" width="1080" height="1080"/>
  <g>
    <path class="cls-1" d="M515.16,623.95h-40.18c-9.94,0-18.01-8.06-18.01-18.01v-86.98c0-9.94-8.06-18.01-18.01-18.01h-16.09c-9.94,0-18.01,8.06-18.01,18.01v139.08c0,9.94,8.06,18.01,18.01,18.01h92.28c9.94,0,18.01-8.06,18.01-18.01v-16.09c0-9.94-8.06-18.01-18.01-18.01Z"/>
    <path class="cls-1" d="M653.72,405.96c-53.98,10.17-94.94,57.68-94.94,114.57s40.96,104.4,94.94,114.57c11.2,2.11,21.63-6.27,21.63-17.67v-16.43c0-8.55-6.07-15.7-14.4-17.61-28.64-6.56-50.08-32.25-50.08-62.86s21.43-56.3,50.08-62.86c8.34-1.91,14.4-9.06,14.4-17.61v-16.44c0-11.4-10.43-19.78-21.63-17.67Z"/>
    <path class="cls-1" d="M870.13,404.04c-74.63,2.7-132.58,66.51-132.58,141.18v112.82c0,9.94,8.06,18.01,18.01,18.01h16.09c9.94,0,18.01-8.06,18.01-18.01v-25.61c0-9.94,8.06-18.01,18.01-18.01h135.09c9.94,0,18.01,8.06,18.01,18.01v25.61c0,9.94,8.06,18.01,18.01,18.01h16.09c9.94,0,18.01-8.06,18.01-18.01v-116.45c0-77.59-64.52-140.39-142.73-137.56ZM960.76,544.32c0,9.94-8.06,18.01-18.01,18.01h-135.09c-9.94,0-18.01-8.06-18.01-18.01,0-46.14,35.38-86.02,81.47-88.18,49.02-2.29,89.63,36.93,89.63,85.45v2.72Z"/>
    <path class="cls-1" d="M199.71,404.04c-74.63,2.7-132.57,66.5-132.57,141.18v112.83c0,9.94,8.06,18.01,18.01,18.01h16.09c9.94,0,18.01-8.06,18.01-18.01v-25.61c0-9.94,8.06-18.01,18.01-18.01h135.09c9.94,0,18.01,8.06,18.01,18.01v25.61c0,9.94,8.06,18.01,18.01,18.01h16.09c9.94,0,18.01-8.06,18.01-18.01v-116.45c0-77.58-64.52-140.38-142.73-137.56ZM290.34,544.32c0,9.94-8.06,18.01-18.01,18.01h-135.09c-9.94,0-18.01-8.06-18.01-18.01h0c0-46.15,35.38-86.02,81.47-88.18,49.02-2.29,89.63,36.93,89.63,85.45v2.72Z"/>
  </g>
</svg>