<?xml version="1.0" standalone="no"?>
<!DOCTYPE svg PUBLIC "-//W3C//DTD SVG 20010904//EN"
 "http://www.w3.org/TR/2001/REC-SVG-20010904/DTD/svg10.dtd">
<svg version="1.0" xmlns="http://www.w3.org/2000/svg"
 width="800.000000pt" height="800.000000pt" viewBox="0 0 800.000000 800.000000"
 preserveAspectRatio="xMidYMid meet">
<metadata>
Created by potrace 1.14, written by Peter Selinger 2001-2017
</metadata>
<g transform="translate(0.000000,800.000000) scale(0.100000,-0.100000)"
fill="#000000" stroke="none">
<path d="M6225 7976 c-13 -19 -15 -60 -14 -244 1 -205 -1 -223 -19 -249 -11
-15 -30 -46 -42 -68 -25 -45 -139 -242 -356 -616 -81 -140 -158 -274 -172
-299 -23 -41 -141 -246 -190 -330 -12 -19 -36 -62 -55 -95 -19 -33 -83 -143
-142 -245 -59 -102 -141 -243 -182 -315 -41 -71 -80 -138 -86 -148 -9 -13 -9
-23 3 -45 l16 -27 212 -3 212 -2 0 -490 0 -490 -74 0 c-54 0 -79 -4 -90 -16
-24 -23 -24 -535 0 -558 14 -15 66 -21 137 -16 l27 2 0 -206 0 -205 -51 3
c-88 4 -93 -6 -94 -170 l0 -139 -145 0 -145 0 -2 139 c-1 109 -5 142 -17 154
-13 13 -51 15 -230 15 -147 0 -216 4 -219 11 -2 6 -3 121 -3 256 l1 245 154 3
c100 2 160 7 169 14 23 20 8 66 -63 188 -84 143 -317 547 -499 865 -76 132
-149 250 -162 262 -41 37 -59 20 -155 -146 -49 -84 -89 -157 -89 -162 0 -5 -4
-9 -9 -9 -5 0 -11 -8 -14 -17 -4 -10 -18 -38 -33 -63 -50 -85 -408 -705 -457
-792 -48 -85 -49 -89 -33 -113 13 -19 25 -25 54 -26 20 0 91 -1 156 -2 l119
-2 -1 -220 c0 -121 -1 -236 -1 -256 l-1 -35 -205 0 c-178 0 -207 -2 -222 -17
-15 -14 -16 -53 -16 -353 0 -324 1 -338 20 -353 16 -13 45 -16 156 -16 75 0
137 -2 138 -5 4 -21 3 -314 -1 -325 -5 -14 -79 24 -235 118 -32 19 -249 170
-255 177 -3 3 -25 21 -50 40 -78 61 -112 91 -246 225 -276 275 -497 606 -628
939 -39 97 -81 220 -91 266 -32 140 -45 204 -50 245 -4 28 -9 53 -11 56 -21
36 -21 603 1 638 1 3 6 29 9 58 17 155 100 446 186 658 23 55 46 114 52 130
18 48 146 303 191 380 149 258 309 468 507 665 128 128 164 159 305 264 93 70
152 109 290 193 159 97 440 214 690 288 97 28 111 36 120 59 12 36 -3 59 -46
68 -34 7 -496 2 -554 -6 -16 -2 -64 -7 -105 -11 -41 -4 -82 -8 -91 -10 -8 -1
-42 -6 -75 -9 -32 -4 -108 -16 -169 -26 -60 -11 -126 -22 -145 -25 -58 -10
-309 -72 -400 -98 -758 -224 -1360 -614 -1794 -1162 -341 -430 -606 -1028
-721 -1625 -13 -69 -25 -140 -30 -180 -3 -25 -8 -58 -10 -75 -35 -203 -42
-847 -10 -1000 2 -11 7 -45 10 -75 6 -62 44 -291 50 -299 1 -3 6 -24 9 -46 23
-143 141 -526 230 -738 146 -352 368 -714 615 -1001 95 -111 286 -300 384
-381 27 -22 63 -52 80 -67 125 -108 396 -281 612 -390 309 -157 773 -324 1035
-374 14 -3 66 -14 115 -24 50 -11 104 -21 120 -24 56 -8 120 -18 135 -21 9 -2
43 -6 75 -10 33 -4 74 -9 90 -11 107 -13 247 -19 430 -19 186 1 388 10 404 19
3 2 40 7 81 10 41 4 84 9 95 11 11 3 31 7 45 9 76 12 112 19 175 32 39 8 79
16 90 18 68 13 238 61 340 96 1102 379 1908 1255 2352 2554 47 140 109 350
144 488 20 82 20 89 5 113 -32 48 -69 30 -116 -58 -61 -116 -182 -289 -298
-427 -75 -89 -372 -381 -381 -375 -5 2 -8 279 -8 615 l0 611 74 -2 c112 -3
106 -18 108 288 1 316 5 303 -104 303 l-78 0 0 490 0 490 208 0 c221 0 239 4
239 50 0 18 -154 288 -928 1625 -79 138 -173 300 -208 361 l-65 112 3 98 3 99
148 1 c117 1 151 4 163 16 15 14 17 62 15 255 -1 94 1 93 -216 93 -183 0 -185
0 -200 -24z m316 -103 c2 -28 2 -67 0 -113 l-1 -25 -103 1 c-56 1 -107 2 -114
3 -8 1 -12 26 -11 81 l1 80 113 0 114 0 1 -27z m-2651 -267 c0 -2 -30 -16 -67
-31 -566 -225 -1043 -612 -1394 -1130 -254 -374 -475 -884 -554 -1279 -44
-221 -50 -288 -50 -541 0 -273 15 -402 75 -627 44 -168 138 -411 207 -536 174
-315 319 -509 562 -752 379 -377 840 -645 1386 -805 234 -69 522 -130 710
-150 28 -3 66 -7 85 -10 118 -16 513 -23 620 -10 25 2 70 7 100 10 31 3 67 7
80 10 14 3 45 8 70 11 321 43 742 194 1035 374 33 20 71 43 84 51 31 17 24 12
151 105 174 127 394 330 520 481 30 36 60 70 65 77 6 6 30 37 54 69 24 31 45
57 46 57 2 0 -14 -53 -35 -117 -112 -352 -259 -683 -442 -998 -48 -81 -162
-258 -192 -296 -12 -14 -28 -37 -36 -49 -8 -13 -44 -60 -79 -104 -326 -410
-691 -712 -1136 -938 -287 -146 -642 -259 -980 -312 -103 -16 -272 -38 -345
-44 -170 -14 -670 -6 -765 12 -11 2 -45 7 -75 10 -30 4 -77 11 -105 16 -27 5
-63 11 -80 14 -177 27 -519 118 -719 191 -272 99 -604 255 -754 356 -24 16
-45 29 -47 29 -11 0 -254 177 -332 242 -177 146 -292 261 -473 474 -70 81
-230 307 -276 389 -6 11 -34 59 -62 106 -107 185 -292 607 -317 726 -2 10 -13
47 -25 83 -23 71 -75 274 -85 330 -3 19 -10 53 -15 75 -5 22 -11 58 -14 80 -4
23 -8 50 -10 60 -2 11 -7 45 -11 75 -4 30 -9 62 -10 72 -2 9 -6 52 -10 95 -3
43 -9 103 -11 133 -8 80 -8 442 0 535 15 175 52 463 61 473 2 2 3 -57 3 -130
1 -135 10 -353 17 -389 2 -11 7 -48 10 -82 3 -34 10 -87 15 -117 5 -30 12 -71
15 -90 10 -63 45 -224 61 -280 9 -30 17 -62 19 -70 8 -38 71 -225 107 -314 82
-208 207 -442 241 -455 29 -11 56 -2 69 23 6 11 12 21 12 21 1 0 -11 20 -25
45 -100 171 -238 477 -264 587 -3 10 -18 63 -35 118 -31 104 -74 294 -86 380
-3 28 -8 59 -10 70 -2 11 -7 47 -10 80 -3 33 -7 71 -9 85 -22 133 -22 627 0
760 2 14 6 54 9 90 4 36 9 77 11 90 3 14 7 43 10 65 3 22 7 47 10 55 2 8 7 31
10 50 19 124 78 273 196 499 97 184 165 293 279 446 114 153 152 197 281 326
452 453 1056 770 1774 933 61 14 126 28 145 31 19 3 58 10 85 15 28 5 68 12
90 15 23 3 50 7 60 9 11 2 49 7 85 11 36 4 79 9 95 11 17 2 64 6 105 10 41 3
76 7 77 7 4 4 143 7 143 3z m2480 -486 c150 -259 150 -260 150 -265 0 -3 -128
-5 -285 -5 -157 0 -285 2 -285 4 0 2 20 39 45 80 25 42 45 81 45 86 0 6 5 10
10 10 6 0 10 4 10 9 0 8 96 178 130 231 5 8 17 30 26 48 20 40 6 58 154 -198z
m-35 -442 c1 -115 10 -142 43 -122 14 9 18 31 22 120 l5 109 79 0 79 0 143
-249 c79 -136 144 -250 144 -251 0 -2 -277 -3 -615 -3 l-615 0 26 46 c25 45
79 139 117 205 10 18 47 82 83 143 l63 110 213 0 213 -1 0 -107z m-310 -657
l0 -196 -333 -2 c-309 -1 -333 0 -327 15 3 9 54 98 111 198 l106 181 222 0
222 0 -1 -196z m972 14 c57 -99 108 -188 114 -197 9 -17 -20 -18 -506 -18
l-515 0 0 199 0 198 401 -1 402 -1 104 -180z m-418 -372 c2 -101 6 -123 26
-123 27 0 36 30 37 123 l0 94 258 0 257 0 96 -166 c53 -91 97 -172 99 -180 3
-12 -154 -15 -1110 -15 -613 -1 -1117 1 -1122 4 -4 3 38 84 94 181 l101 176
631 0 632 0 1 -94z m376 -860 l0 -488 -85 0 -84 0 -1 295 c0 266 -2 299 -19
333 -36 73 -110 117 -191 113 -89 -5 -164 -63 -184 -142 -6 -24 -11 -102 -11
-173 l0 -131 -64 0 c-76 0 -96 -6 -96 -30 0 -28 21 -36 93 -35 l67 0 0 -117 0
-118 -145 0 -145 0 0 298 c0 294 0 298 -24 342 -13 26 -42 58 -67 75 -38 26
-53 30 -111 30 -58 0 -72 -4 -109 -30 -25 -18 -53 -50 -67 -77 -24 -46 -24
-49 -23 -343 l0 -296 -87 3 -87 3 0 398 c0 345 2 398 15 402 8 2 157 4 330 4
281 0 316 1 326 16 16 22 8 42 -19 47 -12 2 -163 3 -334 3 -172 0 -314 3 -314
7 -4 24 -5 75 -1 86 3 9 156 12 721 12 l717 0 -1 -487z m-2802 75 l56 -98 -44
-1 c-186 -2 -220 0 -217 12 2 7 30 59 64 116 54 92 62 102 73 86 6 -10 37 -62
68 -115z m1849 54 c22 -36 23 -43 24 -329 l0 -293 -138 0 -138 0 0 285 c0 262
2 289 19 323 34 65 95 88 168 64 30 -10 49 -24 65 -50z m651 42 c15 -8 37 -29
47 -47 19 -30 20 -52 20 -324 l0 -293 -134 0 c-98 0 -135 3 -138 13 -3 10 -2
491 1 564 1 12 13 36 27 53 47 56 110 68 177 34z m-2509 -389 c1 -70 -1 -130
-4 -134 -5 -8 -390 -10 -390 -3 0 4 34 65 75 134 6 9 21 36 33 60 41 75 38 73
168 72 l118 -2 0 -127z m129 86 c17 -31 59 -107 98 -173 16 -27 29 -50 29 -51
0 -1 -43 -2 -97 -2 l-96 0 -1 124 c-1 93 2 128 13 138 16 16 33 5 54 -36z
m-337 -393 l-1 -103 -173 -1 -172 -1 37 66 c20 36 46 83 58 103 l20 38 116 0
117 0 -2 -102z m558 8 c31 -52 56 -99 56 -103 0 -5 -123 -9 -272 -8 l-273 0
-2 103 -2 102 219 0 219 0 55 -94z m2301 -161 l0 -78 -58 -1 c-38 -1 -61 -6
-67 -15 -8 -14 -3 -40 9 -42 3 -1 107 -2 231 -3 l225 -1 0 -80 0 -80 -900 0
-900 0 -1 185 c0 102 1 187 2 190 1 3 330 5 731 4 l728 0 0 -79z m331 76 c8
-1 11 -27 10 -78 l-1 -77 -133 0 c-81 -1 -132 3 -133 9 -1 6 -2 39 -3 75 -1
55 2 66 17 70 14 4 192 5 243 1z m-2483 -174 c26 -46 47 -86 47 -88 0 -3 -279
-5 -620 -5 l-619 0 31 55 c17 31 40 71 50 89 l20 32 522 0 522 0 47 -83z
m-362 -229 c0 -7 1 -50 1 -96 0 -93 13 -120 49 -101 16 8 20 20 19 57 -1 26
-1 71 -1 100 1 48 3 52 25 52 l23 0 -1 -247 -1 -248 -54 -1 c-50 -1 -54 1 -67
30 -31 70 -95 111 -181 115 -81 4 -172 -55 -189 -123 -5 -20 -11 -22 -80 -23
l-74 0 0 248 0 249 265 0 c205 0 265 -3 266 -12z m2673 -276 c-1 -108 -2 -202
-3 -207 0 -7 -55 -10 -151 -10 -128 0 -153 -2 -166 -16 -13 -15 -13 -18 0 -32
12 -12 44 -15 159 -14 79 0 148 -3 153 -6 6 -3 10 -171 9 -421 l0 -415 -42
-30 c-38 -28 -67 -42 -50 -24 10 10 -13 33 -33 33 -20 0 -30 -19 -30 -60 0
-24 -10 -35 -67 -71 -142 -89 -481 -248 -564 -264 -11 -2 -24 -7 -29 -10 -23
-14 -282 -81 -382 -99 l-28 -5 0 353 0 352 108 -1 c99 -1 160 7 163 23 8 36 5
663 -3 685 -8 19 -18 27 -37 28 -14 1 -120 2 -236 2 l-209 2 -1 195 c-1 107 0
198 2 202 2 3 326 6 721 7 l717 0 -1 -197z m-3122 -455 c-2 -190 -21 -177 257
-177 268 0 248 -13 249 163 0 67 1 129 1 138 1 14 30 16 261 18 207 2 260 -1
261 -11 1 -7 3 -70 3 -141 2 -180 -17 -167 254 -167 275 0 255 -14 253 179
l-1 140 265 -1 265 0 0 -216 0 -217 -243 1 c-133 0 -248 -2 -254 -4 -20 -7
-16 -50 5 -56 10 -4 120 -6 243 -5 269 1 249 2 249 -15 0 -11 -214 -13 -1297
-12 l-1298 1 -1 255 c0 140 1 258 3 261 1 4 121 6 265 5 l262 -1 -2 -138z
m1789 -501 c0 -6 2 -28 3 -48 l2 -38 -243 0 c-237 0 -242 0 -248 -21 -4 -12
-2 -26 3 -31 7 -7 98 -11 246 -11 233 0 236 0 237 -21 1 -12 2 -137 3 -279 1
-294 13 -261 -99 -273 -89 -9 -487 -13 -525 -5 l-33 6 -2 150 c-3 198 -16 245
-95 325 -124 126 -334 126 -460 0 -23 -23 -54 -67 -68 -98 -22 -48 -25 -70
-26 -164 -1 -101 -2 -108 -21 -108 -57 0 -463 132 -601 195 l-74 34 0 198 0
198 1000 1 c698 0 1000 -3 1001 -10z"/>
<path d="M6335 5178 c-17 -10 -20 -43 -5 -53 13 -8 285 -9 299 -1 15 9 14 43
-1 52 -17 11 -274 12 -293 2z"/>
<path d="M5658 4032 c-8 -10 -9 -18 -1 -30 9 -15 31 -17 154 -18 79 0 150 1
157 4 6 2 12 15 12 28 0 29 10 27 -168 29 -111 1 -145 -2 -154 -13z"/>
<path d="M4037 3732 c-62 -4 -75 -24 -72 -115 2 -90 13 -100 106 -102 104 -2
116 15 109 145 -4 68 -27 79 -143 72z m81 -107 l0 -45 -44 0 -44 0 0 45 0 45
44 0 44 0 0 -45z"/>
<path d="M5999 3588 c-20 -8 -24 -24 -11 -46 7 -9 43 -12 148 -10 l139 3 3 28
c4 31 16 28 -156 31 -57 0 -112 -2 -123 -6z"/>
<path d="M3773 2469 c-15 -15 -4 -49 16 -50 73 -3 192 0 200 6 16 10 13 42 -5
49 -27 11 -199 7 -211 -5z"/>
</g>
</svg>
